<mxfile host="app.diagrams.net" modified="2024-03-21T07:42:25.607Z" agent="Mozilla/5.0 (Windows NT 10.0; Win64; x64) AppleWebKit/537.36 (KHTML, like Gecko) Chrome/122.0.0.0 Safari/537.36" etag="BtA-otjzF2VMbed5imP4" version="24.0.7" type="device">
  <diagram id="caDaNSe9JKFe-G_0RVHu" name="Страница — 1">
    <mxGraphModel dx="1909" dy="2133" grid="1" gridSize="10" guides="1" tooltips="1" connect="1" arrows="1" fold="1" page="1" pageScale="1" pageWidth="827" pageHeight="1169" math="0" shadow="0">
      <root>
        <mxCell id="0" />
        <mxCell id="1" parent="0" />
        <mxCell id="ZUWV-IsaNAgwDZ5CgreR-1" value="user" style="swimlane;fontStyle=0;childLayout=stackLayout;horizontal=1;startSize=26;horizontalStack=0;resizeParent=1;resizeParentMax=0;resizeLast=0;collapsible=1;marginBottom=0;align=center;fontSize=14;" parent="1" vertex="1">
          <mxGeometry x="90" y="60" width="160" height="146" as="geometry" />
        </mxCell>
        <mxCell id="ZUWV-IsaNAgwDZ5CgreR-2" value="id" style="text;strokeColor=none;fillColor=none;spacingLeft=4;spacingRight=4;overflow=hidden;rotatable=0;points=[[0,0.5],[1,0.5]];portConstraint=eastwest;fontSize=12;" parent="ZUWV-IsaNAgwDZ5CgreR-1" vertex="1">
          <mxGeometry y="26" width="160" height="30" as="geometry" />
        </mxCell>
        <mxCell id="ZUWV-IsaNAgwDZ5CgreR-3" value="email" style="text;strokeColor=none;fillColor=none;spacingLeft=4;spacingRight=4;overflow=hidden;rotatable=0;points=[[0,0.5],[1,0.5]];portConstraint=eastwest;fontSize=12;" parent="ZUWV-IsaNAgwDZ5CgreR-1" vertex="1">
          <mxGeometry y="56" width="160" height="30" as="geometry" />
        </mxCell>
        <mxCell id="ZUWV-IsaNAgwDZ5CgreR-5" value="password" style="text;strokeColor=none;fillColor=none;spacingLeft=4;spacingRight=4;overflow=hidden;rotatable=0;points=[[0,0.5],[1,0.5]];portConstraint=eastwest;fontSize=12;" parent="ZUWV-IsaNAgwDZ5CgreR-1" vertex="1">
          <mxGeometry y="86" width="160" height="30" as="geometry" />
        </mxCell>
        <mxCell id="ZUWV-IsaNAgwDZ5CgreR-4" value="role STRING" style="text;strokeColor=none;fillColor=none;spacingLeft=4;spacingRight=4;overflow=hidden;rotatable=0;points=[[0,0.5],[1,0.5]];portConstraint=eastwest;fontSize=12;" parent="ZUWV-IsaNAgwDZ5CgreR-1" vertex="1">
          <mxGeometry y="116" width="160" height="30" as="geometry" />
        </mxCell>
        <mxCell id="ZUWV-IsaNAgwDZ5CgreR-6" value="basket" style="swimlane;fontStyle=0;childLayout=stackLayout;horizontal=1;startSize=26;horizontalStack=0;resizeParent=1;resizeParentMax=0;resizeLast=0;collapsible=1;marginBottom=0;align=center;fontSize=14;" parent="1" vertex="1">
          <mxGeometry x="420" y="20" width="160" height="86" as="geometry" />
        </mxCell>
        <mxCell id="ZUWV-IsaNAgwDZ5CgreR-7" value="id" style="text;strokeColor=none;fillColor=none;spacingLeft=4;spacingRight=4;overflow=hidden;rotatable=0;points=[[0,0.5],[1,0.5]];portConstraint=eastwest;fontSize=12;" parent="ZUWV-IsaNAgwDZ5CgreR-6" vertex="1">
          <mxGeometry y="26" width="160" height="30" as="geometry" />
        </mxCell>
        <mxCell id="ZUWV-IsaNAgwDZ5CgreR-8" value="user_id" style="text;strokeColor=none;fillColor=none;spacingLeft=4;spacingRight=4;overflow=hidden;rotatable=0;points=[[0,0.5],[1,0.5]];portConstraint=eastwest;fontSize=12;" parent="ZUWV-IsaNAgwDZ5CgreR-6" vertex="1">
          <mxGeometry y="56" width="160" height="30" as="geometry" />
        </mxCell>
        <mxCell id="ZUWV-IsaNAgwDZ5CgreR-11" value="" style="edgeStyle=entityRelationEdgeStyle;fontSize=12;html=1;endArrow=ERmandOne;startArrow=ERmandOne;exitX=1;exitY=0.178;exitDx=0;exitDy=0;exitPerimeter=0;entryX=0;entryY=0.5;entryDx=0;entryDy=0;" parent="1" source="ZUWV-IsaNAgwDZ5CgreR-3" target="ZUWV-IsaNAgwDZ5CgreR-7" edge="1">
          <mxGeometry width="100" height="100" relative="1" as="geometry">
            <mxPoint x="350" y="410" as="sourcePoint" />
            <mxPoint x="450" y="310" as="targetPoint" />
          </mxGeometry>
        </mxCell>
        <mxCell id="ZUWV-IsaNAgwDZ5CgreR-12" value="product" style="swimlane;fontStyle=0;childLayout=stackLayout;horizontal=1;startSize=26;horizontalStack=0;resizeParent=1;resizeParentMax=0;resizeLast=0;collapsible=1;marginBottom=0;align=center;fontSize=14;" parent="1" vertex="1">
          <mxGeometry x="960" y="100" width="160" height="236" as="geometry" />
        </mxCell>
        <mxCell id="ZUWV-IsaNAgwDZ5CgreR-13" value="id" style="text;strokeColor=none;fillColor=none;spacingLeft=4;spacingRight=4;overflow=hidden;rotatable=0;points=[[0,0.5],[1,0.5]];portConstraint=eastwest;fontSize=12;" parent="ZUWV-IsaNAgwDZ5CgreR-12" vertex="1">
          <mxGeometry y="26" width="160" height="30" as="geometry" />
        </mxCell>
        <mxCell id="ZUWV-IsaNAgwDZ5CgreR-14" value="name" style="text;strokeColor=none;fillColor=none;spacingLeft=4;spacingRight=4;overflow=hidden;rotatable=0;points=[[0,0.5],[1,0.5]];portConstraint=eastwest;fontSize=12;" parent="ZUWV-IsaNAgwDZ5CgreR-12" vertex="1">
          <mxGeometry y="56" width="160" height="30" as="geometry" />
        </mxCell>
        <mxCell id="ZUWV-IsaNAgwDZ5CgreR-15" value="price" style="text;strokeColor=none;fillColor=none;spacingLeft=4;spacingRight=4;overflow=hidden;rotatable=0;points=[[0,0.5],[1,0.5]];portConstraint=eastwest;fontSize=12;" parent="ZUWV-IsaNAgwDZ5CgreR-12" vertex="1">
          <mxGeometry y="86" width="160" height="30" as="geometry" />
        </mxCell>
        <mxCell id="ZUWV-IsaNAgwDZ5CgreR-16" value="rating" style="text;strokeColor=none;fillColor=none;spacingLeft=4;spacingRight=4;overflow=hidden;rotatable=0;points=[[0,0.5],[1,0.5]];portConstraint=eastwest;fontSize=12;" parent="ZUWV-IsaNAgwDZ5CgreR-12" vertex="1">
          <mxGeometry y="116" width="160" height="30" as="geometry" />
        </mxCell>
        <mxCell id="ZUWV-IsaNAgwDZ5CgreR-17" value="img" style="text;strokeColor=none;fillColor=none;spacingLeft=4;spacingRight=4;overflow=hidden;rotatable=0;points=[[0,0.5],[1,0.5]];portConstraint=eastwest;fontSize=12;" parent="ZUWV-IsaNAgwDZ5CgreR-12" vertex="1">
          <mxGeometry y="146" width="160" height="30" as="geometry" />
        </mxCell>
        <mxCell id="ZUWV-IsaNAgwDZ5CgreR-18" value="typeId" style="text;strokeColor=none;fillColor=none;spacingLeft=4;spacingRight=4;overflow=hidden;rotatable=0;points=[[0,0.5],[1,0.5]];portConstraint=eastwest;fontSize=12;" parent="ZUWV-IsaNAgwDZ5CgreR-12" vertex="1">
          <mxGeometry y="176" width="160" height="30" as="geometry" />
        </mxCell>
        <mxCell id="ZUWV-IsaNAgwDZ5CgreR-19" value="brandId" style="text;strokeColor=none;fillColor=none;spacingLeft=4;spacingRight=4;overflow=hidden;rotatable=0;points=[[0,0.5],[1,0.5]];portConstraint=eastwest;fontSize=12;" parent="ZUWV-IsaNAgwDZ5CgreR-12" vertex="1">
          <mxGeometry y="206" width="160" height="30" as="geometry" />
        </mxCell>
        <mxCell id="ZUWV-IsaNAgwDZ5CgreR-20" value="type" style="swimlane;fontStyle=0;childLayout=stackLayout;horizontal=1;startSize=26;horizontalStack=0;resizeParent=1;resizeParentMax=0;resizeLast=0;collapsible=1;marginBottom=0;align=center;fontSize=14;" parent="1" vertex="1">
          <mxGeometry x="680" y="440" width="160" height="86" as="geometry" />
        </mxCell>
        <mxCell id="ZUWV-IsaNAgwDZ5CgreR-21" value="id" style="text;strokeColor=none;fillColor=none;spacingLeft=4;spacingRight=4;overflow=hidden;rotatable=0;points=[[0,0.5],[1,0.5]];portConstraint=eastwest;fontSize=12;" parent="ZUWV-IsaNAgwDZ5CgreR-20" vertex="1">
          <mxGeometry y="26" width="160" height="30" as="geometry" />
        </mxCell>
        <mxCell id="ZUWV-IsaNAgwDZ5CgreR-22" value="name" style="text;strokeColor=none;fillColor=none;spacingLeft=4;spacingRight=4;overflow=hidden;rotatable=0;points=[[0,0.5],[1,0.5]];portConstraint=eastwest;fontSize=12;" parent="ZUWV-IsaNAgwDZ5CgreR-20" vertex="1">
          <mxGeometry y="56" width="160" height="30" as="geometry" />
        </mxCell>
        <mxCell id="ZUWV-IsaNAgwDZ5CgreR-24" value="brand" style="swimlane;fontStyle=0;childLayout=stackLayout;horizontal=1;startSize=26;horizontalStack=0;resizeParent=1;resizeParentMax=0;resizeLast=0;collapsible=1;marginBottom=0;align=center;fontSize=14;" parent="1" vertex="1">
          <mxGeometry x="920" y="440" width="160" height="86" as="geometry" />
        </mxCell>
        <mxCell id="ZUWV-IsaNAgwDZ5CgreR-25" value="id" style="text;strokeColor=none;fillColor=none;spacingLeft=4;spacingRight=4;overflow=hidden;rotatable=0;points=[[0,0.5],[1,0.5]];portConstraint=eastwest;fontSize=12;" parent="ZUWV-IsaNAgwDZ5CgreR-24" vertex="1">
          <mxGeometry y="26" width="160" height="30" as="geometry" />
        </mxCell>
        <mxCell id="ZUWV-IsaNAgwDZ5CgreR-26" value="name" style="text;strokeColor=none;fillColor=none;spacingLeft=4;spacingRight=4;overflow=hidden;rotatable=0;points=[[0,0.5],[1,0.5]];portConstraint=eastwest;fontSize=12;" parent="ZUWV-IsaNAgwDZ5CgreR-24" vertex="1">
          <mxGeometry y="56" width="160" height="30" as="geometry" />
        </mxCell>
        <mxCell id="ZUWV-IsaNAgwDZ5CgreR-28" value="" style="edgeStyle=entityRelationEdgeStyle;fontSize=12;html=1;endArrow=ERoneToMany;exitX=0.5;exitY=0;exitDx=0;exitDy=0;entryX=0;entryY=0.5;entryDx=0;entryDy=0;" parent="1" source="ZUWV-IsaNAgwDZ5CgreR-20" target="ZUWV-IsaNAgwDZ5CgreR-17" edge="1">
          <mxGeometry width="100" height="100" relative="1" as="geometry">
            <mxPoint x="780" y="430" as="sourcePoint" />
            <mxPoint x="880" y="330" as="targetPoint" />
          </mxGeometry>
        </mxCell>
        <mxCell id="ZUWV-IsaNAgwDZ5CgreR-29" value="" style="fontSize=12;html=1;endArrow=ERoneToMany;exitX=0.5;exitY=0;exitDx=0;exitDy=0;entryX=0.296;entryY=1.124;entryDx=0;entryDy=0;entryPerimeter=0;" parent="1" source="ZUWV-IsaNAgwDZ5CgreR-24" target="ZUWV-IsaNAgwDZ5CgreR-19" edge="1">
          <mxGeometry width="100" height="100" relative="1" as="geometry">
            <mxPoint x="780" y="430" as="sourcePoint" />
            <mxPoint x="940" y="370" as="targetPoint" />
          </mxGeometry>
        </mxCell>
        <mxCell id="ZUWV-IsaNAgwDZ5CgreR-30" value="" style="edgeStyle=entityRelationEdgeStyle;fontSize=12;html=1;endArrow=ERmany;startArrow=ERmany;exitX=1;exitY=0.5;exitDx=0;exitDy=0;entryX=0;entryY=0.5;entryDx=0;entryDy=0;" parent="1" source="ZUWV-IsaNAgwDZ5CgreR-21" target="ZUWV-IsaNAgwDZ5CgreR-25" edge="1">
          <mxGeometry width="100" height="100" relative="1" as="geometry">
            <mxPoint x="780" y="430" as="sourcePoint" />
            <mxPoint x="880" y="330" as="targetPoint" />
          </mxGeometry>
        </mxCell>
        <mxCell id="ZUWV-IsaNAgwDZ5CgreR-31" value="product_info" style="swimlane;fontStyle=0;childLayout=stackLayout;horizontal=1;startSize=26;horizontalStack=0;resizeParent=1;resizeParentMax=0;resizeLast=0;collapsible=1;marginBottom=0;align=center;fontSize=14;" parent="1" vertex="1">
          <mxGeometry x="1230" y="136" width="160" height="146" as="geometry" />
        </mxCell>
        <mxCell id="ZUWV-IsaNAgwDZ5CgreR-32" value="id" style="text;strokeColor=none;fillColor=none;spacingLeft=4;spacingRight=4;overflow=hidden;rotatable=0;points=[[0,0.5],[1,0.5]];portConstraint=eastwest;fontSize=12;" parent="ZUWV-IsaNAgwDZ5CgreR-31" vertex="1">
          <mxGeometry y="26" width="160" height="30" as="geometry" />
        </mxCell>
        <mxCell id="ZUWV-IsaNAgwDZ5CgreR-33" value="product_id" style="text;strokeColor=none;fillColor=none;spacingLeft=4;spacingRight=4;overflow=hidden;rotatable=0;points=[[0,0.5],[1,0.5]];portConstraint=eastwest;fontSize=12;" parent="ZUWV-IsaNAgwDZ5CgreR-31" vertex="1">
          <mxGeometry y="56" width="160" height="30" as="geometry" />
        </mxCell>
        <mxCell id="ZUWV-IsaNAgwDZ5CgreR-34" value="title" style="text;strokeColor=none;fillColor=none;spacingLeft=4;spacingRight=4;overflow=hidden;rotatable=0;points=[[0,0.5],[1,0.5]];portConstraint=eastwest;fontSize=12;" parent="ZUWV-IsaNAgwDZ5CgreR-31" vertex="1">
          <mxGeometry y="86" width="160" height="30" as="geometry" />
        </mxCell>
        <mxCell id="ZUWV-IsaNAgwDZ5CgreR-36" value="description" style="text;strokeColor=none;fillColor=none;spacingLeft=4;spacingRight=4;overflow=hidden;rotatable=0;points=[[0,0.5],[1,0.5]];portConstraint=eastwest;fontSize=12;" parent="ZUWV-IsaNAgwDZ5CgreR-31" vertex="1">
          <mxGeometry y="116" width="160" height="30" as="geometry" />
        </mxCell>
        <mxCell id="ZUWV-IsaNAgwDZ5CgreR-35" value="" style="edgeStyle=entityRelationEdgeStyle;fontSize=12;html=1;endArrow=ERoneToMany;exitX=1;exitY=0.5;exitDx=0;exitDy=0;entryX=0;entryY=0.5;entryDx=0;entryDy=0;" parent="1" source="ZUWV-IsaNAgwDZ5CgreR-14" target="ZUWV-IsaNAgwDZ5CgreR-33" edge="1">
          <mxGeometry width="100" height="100" relative="1" as="geometry">
            <mxPoint x="1000" y="320" as="sourcePoint" />
            <mxPoint x="1100" y="220" as="targetPoint" />
          </mxGeometry>
        </mxCell>
        <mxCell id="ZUWV-IsaNAgwDZ5CgreR-37" value="basket_product" style="swimlane;fontStyle=0;childLayout=stackLayout;horizontal=1;startSize=26;horizontalStack=0;resizeParent=1;resizeParentMax=0;resizeLast=0;collapsible=1;marginBottom=0;align=center;fontSize=14;" parent="1" vertex="1">
          <mxGeometry x="630" y="20" width="160" height="116" as="geometry" />
        </mxCell>
        <mxCell id="ZUWV-IsaNAgwDZ5CgreR-38" value="id" style="text;strokeColor=none;fillColor=none;spacingLeft=4;spacingRight=4;overflow=hidden;rotatable=0;points=[[0,0.5],[1,0.5]];portConstraint=eastwest;fontSize=12;" parent="ZUWV-IsaNAgwDZ5CgreR-37" vertex="1">
          <mxGeometry y="26" width="160" height="30" as="geometry" />
        </mxCell>
        <mxCell id="ZUWV-IsaNAgwDZ5CgreR-39" value="product_id" style="text;strokeColor=none;fillColor=none;spacingLeft=4;spacingRight=4;overflow=hidden;rotatable=0;points=[[0,0.5],[1,0.5]];portConstraint=eastwest;fontSize=12;" parent="ZUWV-IsaNAgwDZ5CgreR-37" vertex="1">
          <mxGeometry y="56" width="160" height="30" as="geometry" />
        </mxCell>
        <mxCell id="ZUWV-IsaNAgwDZ5CgreR-40" value="basket_id" style="text;strokeColor=none;fillColor=none;spacingLeft=4;spacingRight=4;overflow=hidden;rotatable=0;points=[[0,0.5],[1,0.5]];portConstraint=eastwest;fontSize=12;" parent="ZUWV-IsaNAgwDZ5CgreR-37" vertex="1">
          <mxGeometry y="86" width="160" height="30" as="geometry" />
        </mxCell>
        <mxCell id="ZUWV-IsaNAgwDZ5CgreR-41" value="" style="edgeStyle=entityRelationEdgeStyle;fontSize=12;html=1;endArrow=ERoneToMany;exitX=1;exitY=0.5;exitDx=0;exitDy=0;entryX=0;entryY=0.5;entryDx=0;entryDy=0;" parent="1" source="ZUWV-IsaNAgwDZ5CgreR-7" target="ZUWV-IsaNAgwDZ5CgreR-38" edge="1">
          <mxGeometry width="100" height="100" relative="1" as="geometry">
            <mxPoint x="530" y="330" as="sourcePoint" />
            <mxPoint x="630" y="230" as="targetPoint" />
          </mxGeometry>
        </mxCell>
        <mxCell id="ZUWV-IsaNAgwDZ5CgreR-42" value="" style="edgeStyle=entityRelationEdgeStyle;fontSize=12;html=1;endArrow=ERmandOne;startArrow=ERmandOne;exitX=1.001;exitY=0.091;exitDx=0;exitDy=0;exitPerimeter=0;" parent="1" source="ZUWV-IsaNAgwDZ5CgreR-39" edge="1" target="ZUWV-IsaNAgwDZ5CgreR-14">
          <mxGeometry width="100" height="100" relative="1" as="geometry">
            <mxPoint x="830" y="310" as="sourcePoint" />
            <mxPoint x="880" y="210" as="targetPoint" />
          </mxGeometry>
        </mxCell>
        <mxCell id="ZUWV-IsaNAgwDZ5CgreR-43" value="rating" style="swimlane;fontStyle=0;childLayout=stackLayout;horizontal=1;startSize=26;horizontalStack=0;resizeParent=1;resizeParentMax=0;resizeLast=0;collapsible=1;marginBottom=0;align=center;fontSize=14;" parent="1" vertex="1">
          <mxGeometry x="360" y="480" width="160" height="146" as="geometry" />
        </mxCell>
        <mxCell id="ZUWV-IsaNAgwDZ5CgreR-44" value="id" style="text;strokeColor=none;fillColor=none;spacingLeft=4;spacingRight=4;overflow=hidden;rotatable=0;points=[[0,0.5],[1,0.5]];portConstraint=eastwest;fontSize=12;" parent="ZUWV-IsaNAgwDZ5CgreR-43" vertex="1">
          <mxGeometry y="26" width="160" height="30" as="geometry" />
        </mxCell>
        <mxCell id="ZUWV-IsaNAgwDZ5CgreR-45" value="user_id" style="text;strokeColor=none;fillColor=none;spacingLeft=4;spacingRight=4;overflow=hidden;rotatable=0;points=[[0,0.5],[1,0.5]];portConstraint=eastwest;fontSize=12;" parent="ZUWV-IsaNAgwDZ5CgreR-43" vertex="1">
          <mxGeometry y="56" width="160" height="30" as="geometry" />
        </mxCell>
        <mxCell id="ZUWV-IsaNAgwDZ5CgreR-46" value="product_id" style="text;strokeColor=none;fillColor=none;spacingLeft=4;spacingRight=4;overflow=hidden;rotatable=0;points=[[0,0.5],[1,0.5]];portConstraint=eastwest;fontSize=12;" parent="ZUWV-IsaNAgwDZ5CgreR-43" vertex="1">
          <mxGeometry y="86" width="160" height="30" as="geometry" />
        </mxCell>
        <mxCell id="ZUWV-IsaNAgwDZ5CgreR-47" value="rate" style="text;strokeColor=none;fillColor=none;spacingLeft=4;spacingRight=4;overflow=hidden;rotatable=0;points=[[0,0.5],[1,0.5]];portConstraint=eastwest;fontSize=12;" parent="ZUWV-IsaNAgwDZ5CgreR-43" vertex="1">
          <mxGeometry y="116" width="160" height="30" as="geometry" />
        </mxCell>
        <mxCell id="ZUWV-IsaNAgwDZ5CgreR-48" value="" style="edgeStyle=entityRelationEdgeStyle;fontSize=12;html=1;endArrow=ERoneToMany;exitX=0.523;exitY=1.129;exitDx=0;exitDy=0;exitPerimeter=0;entryX=0.5;entryY=0;entryDx=0;entryDy=0;" parent="1" source="ZUWV-IsaNAgwDZ5CgreR-4" target="ZUWV-IsaNAgwDZ5CgreR-43" edge="1">
          <mxGeometry width="100" height="100" relative="1" as="geometry">
            <mxPoint x="510" y="420" as="sourcePoint" />
            <mxPoint x="610" y="320" as="targetPoint" />
          </mxGeometry>
        </mxCell>
        <mxCell id="ZUWV-IsaNAgwDZ5CgreR-49" value="" style="fontSize=12;html=1;endArrow=ERoneToMany;exitX=0;exitY=0.5;exitDx=0;exitDy=0;entryX=1;entryY=0.5;entryDx=0;entryDy=0;" parent="1" source="ZUWV-IsaNAgwDZ5CgreR-16" target="ZUWV-IsaNAgwDZ5CgreR-44" edge="1">
          <mxGeometry width="100" height="100" relative="1" as="geometry">
            <mxPoint x="770" y="310" as="sourcePoint" />
            <mxPoint x="630" y="320" as="targetPoint" />
          </mxGeometry>
        </mxCell>
        <mxCell id="-fZvA1d1fAGdgOHOHWPX-1" value="review" style="swimlane;fontStyle=0;childLayout=stackLayout;horizontal=1;startSize=26;horizontalStack=0;resizeParent=1;resizeParentMax=0;resizeLast=0;collapsible=1;marginBottom=0;align=center;fontSize=14;" vertex="1" parent="1">
          <mxGeometry x="530" y="-210" width="160" height="146" as="geometry" />
        </mxCell>
        <mxCell id="-fZvA1d1fAGdgOHOHWPX-2" value="id" style="text;strokeColor=none;fillColor=none;spacingLeft=4;spacingRight=4;overflow=hidden;rotatable=0;points=[[0,0.5],[1,0.5]];portConstraint=eastwest;fontSize=12;" vertex="1" parent="-fZvA1d1fAGdgOHOHWPX-1">
          <mxGeometry y="26" width="160" height="30" as="geometry" />
        </mxCell>
        <mxCell id="-fZvA1d1fAGdgOHOHWPX-3" value="user_id" style="text;strokeColor=none;fillColor=none;spacingLeft=4;spacingRight=4;overflow=hidden;rotatable=0;points=[[0,0.5],[1,0.5]];portConstraint=eastwest;fontSize=12;" vertex="1" parent="-fZvA1d1fAGdgOHOHWPX-1">
          <mxGeometry y="56" width="160" height="30" as="geometry" />
        </mxCell>
        <mxCell id="-fZvA1d1fAGdgOHOHWPX-4" value="product_id" style="text;strokeColor=none;fillColor=none;spacingLeft=4;spacingRight=4;overflow=hidden;rotatable=0;points=[[0,0.5],[1,0.5]];portConstraint=eastwest;fontSize=12;" vertex="1" parent="-fZvA1d1fAGdgOHOHWPX-1">
          <mxGeometry y="86" width="160" height="30" as="geometry" />
        </mxCell>
        <mxCell id="-fZvA1d1fAGdgOHOHWPX-13" value="text&#xa;" style="text;strokeColor=none;fillColor=none;spacingLeft=4;spacingRight=4;overflow=hidden;rotatable=0;points=[[0,0.5],[1,0.5]];portConstraint=eastwest;fontSize=12;" vertex="1" parent="-fZvA1d1fAGdgOHOHWPX-1">
          <mxGeometry y="116" width="160" height="30" as="geometry" />
        </mxCell>
        <mxCell id="-fZvA1d1fAGdgOHOHWPX-10" value="" style="edgeStyle=entityRelationEdgeStyle;fontSize=12;html=1;endArrow=ERoneToMany;rounded=0;exitX=1;exitY=0.5;exitDx=0;exitDy=0;entryX=0;entryY=0.5;entryDx=0;entryDy=0;" edge="1" parent="1" source="ZUWV-IsaNAgwDZ5CgreR-2" target="-fZvA1d1fAGdgOHOHWPX-2">
          <mxGeometry width="100" height="100" relative="1" as="geometry">
            <mxPoint x="740" y="190" as="sourcePoint" />
            <mxPoint x="70" y="220" as="targetPoint" />
          </mxGeometry>
        </mxCell>
        <mxCell id="-fZvA1d1fAGdgOHOHWPX-14" value="" style="edgeStyle=entityRelationEdgeStyle;fontSize=12;html=1;endArrow=ERoneToMany;rounded=0;entryX=1;entryY=0.5;entryDx=0;entryDy=0;exitX=0;exitY=0.5;exitDx=0;exitDy=0;" edge="1" parent="1" source="ZUWV-IsaNAgwDZ5CgreR-13" target="-fZvA1d1fAGdgOHOHWPX-4">
          <mxGeometry width="100" height="100" relative="1" as="geometry">
            <mxPoint x="830" y="220" as="sourcePoint" />
            <mxPoint x="930" y="50" as="targetPoint" />
          </mxGeometry>
        </mxCell>
        <mxCell id="-fZvA1d1fAGdgOHOHWPX-18" value="order" style="swimlane;fontStyle=0;childLayout=stackLayout;horizontal=1;startSize=26;horizontalStack=0;resizeParent=1;resizeParentMax=0;resizeLast=0;collapsible=1;marginBottom=0;align=center;fontSize=14;" vertex="1" parent="1">
          <mxGeometry x="370" y="160" width="160" height="116" as="geometry" />
        </mxCell>
        <mxCell id="-fZvA1d1fAGdgOHOHWPX-19" value="id" style="text;strokeColor=none;fillColor=none;spacingLeft=4;spacingRight=4;overflow=hidden;rotatable=0;points=[[0,0.5],[1,0.5]];portConstraint=eastwest;fontSize=12;" vertex="1" parent="-fZvA1d1fAGdgOHOHWPX-18">
          <mxGeometry y="26" width="160" height="30" as="geometry" />
        </mxCell>
        <mxCell id="-fZvA1d1fAGdgOHOHWPX-20" value="user_id" style="text;strokeColor=none;fillColor=none;spacingLeft=4;spacingRight=4;overflow=hidden;rotatable=0;points=[[0,0.5],[1,0.5]];portConstraint=eastwest;fontSize=12;" vertex="1" parent="-fZvA1d1fAGdgOHOHWPX-18">
          <mxGeometry y="56" width="160" height="30" as="geometry" />
        </mxCell>
        <mxCell id="-fZvA1d1fAGdgOHOHWPX-52" value="status_id" style="text;strokeColor=none;fillColor=none;spacingLeft=4;spacingRight=4;overflow=hidden;rotatable=0;points=[[0,0.5],[1,0.5]];portConstraint=eastwest;fontSize=12;" vertex="1" parent="-fZvA1d1fAGdgOHOHWPX-18">
          <mxGeometry y="86" width="160" height="30" as="geometry" />
        </mxCell>
        <mxCell id="-fZvA1d1fAGdgOHOHWPX-21" value="" style="edgeStyle=entityRelationEdgeStyle;fontSize=12;html=1;endArrow=ERoneToMany;rounded=0;exitX=1;exitY=0.5;exitDx=0;exitDy=0;entryX=0;entryY=0.25;entryDx=0;entryDy=0;" edge="1" parent="1" source="ZUWV-IsaNAgwDZ5CgreR-3" target="-fZvA1d1fAGdgOHOHWPX-18">
          <mxGeometry width="100" height="100" relative="1" as="geometry">
            <mxPoint x="340" y="111" as="sourcePoint" />
            <mxPoint x="570" y="-189" as="targetPoint" />
          </mxGeometry>
        </mxCell>
        <mxCell id="-fZvA1d1fAGdgOHOHWPX-22" value="order_product" style="swimlane;fontStyle=0;childLayout=stackLayout;horizontal=1;startSize=26;horizontalStack=0;resizeParent=1;resizeParentMax=0;resizeLast=0;collapsible=1;marginBottom=0;align=center;fontSize=14;" vertex="1" parent="1">
          <mxGeometry x="610" y="180" width="160" height="146" as="geometry" />
        </mxCell>
        <mxCell id="-fZvA1d1fAGdgOHOHWPX-23" value="id" style="text;strokeColor=none;fillColor=none;spacingLeft=4;spacingRight=4;overflow=hidden;rotatable=0;points=[[0,0.5],[1,0.5]];portConstraint=eastwest;fontSize=12;" vertex="1" parent="-fZvA1d1fAGdgOHOHWPX-22">
          <mxGeometry y="26" width="160" height="30" as="geometry" />
        </mxCell>
        <mxCell id="-fZvA1d1fAGdgOHOHWPX-24" value="product_id" style="text;strokeColor=none;fillColor=none;spacingLeft=4;spacingRight=4;overflow=hidden;rotatable=0;points=[[0,0.5],[1,0.5]];portConstraint=eastwest;fontSize=12;" vertex="1" parent="-fZvA1d1fAGdgOHOHWPX-22">
          <mxGeometry y="56" width="160" height="30" as="geometry" />
        </mxCell>
        <mxCell id="-fZvA1d1fAGdgOHOHWPX-25" value="basket_id" style="text;strokeColor=none;fillColor=none;spacingLeft=4;spacingRight=4;overflow=hidden;rotatable=0;points=[[0,0.5],[1,0.5]];portConstraint=eastwest;fontSize=12;" vertex="1" parent="-fZvA1d1fAGdgOHOHWPX-22">
          <mxGeometry y="86" width="160" height="30" as="geometry" />
        </mxCell>
        <mxCell id="-fZvA1d1fAGdgOHOHWPX-55" value="quantity" style="text;strokeColor=none;fillColor=none;spacingLeft=4;spacingRight=4;overflow=hidden;rotatable=0;points=[[0,0.5],[1,0.5]];portConstraint=eastwest;fontSize=12;" vertex="1" parent="-fZvA1d1fAGdgOHOHWPX-22">
          <mxGeometry y="116" width="160" height="30" as="geometry" />
        </mxCell>
        <mxCell id="-fZvA1d1fAGdgOHOHWPX-27" value="" style="edgeStyle=entityRelationEdgeStyle;fontSize=12;html=1;endArrow=ERoneToMany;entryX=0;entryY=0.5;entryDx=0;entryDy=0;" edge="1" parent="1" source="-fZvA1d1fAGdgOHOHWPX-19" target="-fZvA1d1fAGdgOHOHWPX-23">
          <mxGeometry width="100" height="100" relative="1" as="geometry">
            <mxPoint x="580" y="220" as="sourcePoint" />
            <mxPoint x="640" y="101" as="targetPoint" />
          </mxGeometry>
        </mxCell>
        <mxCell id="-fZvA1d1fAGdgOHOHWPX-28" value="" style="edgeStyle=entityRelationEdgeStyle;fontSize=12;html=1;endArrow=ERmandOne;startArrow=ERmandOne;exitX=1;exitY=0.5;exitDx=0;exitDy=0;" edge="1" parent="1" source="-fZvA1d1fAGdgOHOHWPX-23" target="ZUWV-IsaNAgwDZ5CgreR-14">
          <mxGeometry width="100" height="100" relative="1" as="geometry">
            <mxPoint x="800" y="119" as="sourcePoint" />
            <mxPoint x="890" y="220" as="targetPoint" />
          </mxGeometry>
        </mxCell>
        <mxCell id="-fZvA1d1fAGdgOHOHWPX-56" value="order_status" style="swimlane;fontStyle=0;childLayout=stackLayout;horizontal=1;startSize=26;horizontalStack=0;resizeParent=1;resizeParentMax=0;resizeLast=0;collapsible=1;marginBottom=0;align=center;fontSize=14;" vertex="1" parent="1">
          <mxGeometry x="380" y="326" width="160" height="86" as="geometry" />
        </mxCell>
        <mxCell id="-fZvA1d1fAGdgOHOHWPX-57" value="id" style="text;strokeColor=none;fillColor=none;spacingLeft=4;spacingRight=4;overflow=hidden;rotatable=0;points=[[0,0.5],[1,0.5]];portConstraint=eastwest;fontSize=12;" vertex="1" parent="-fZvA1d1fAGdgOHOHWPX-56">
          <mxGeometry y="26" width="160" height="30" as="geometry" />
        </mxCell>
        <mxCell id="-fZvA1d1fAGdgOHOHWPX-58" value="name" style="text;strokeColor=none;fillColor=none;spacingLeft=4;spacingRight=4;overflow=hidden;rotatable=0;points=[[0,0.5],[1,0.5]];portConstraint=eastwest;fontSize=12;" vertex="1" parent="-fZvA1d1fAGdgOHOHWPX-56">
          <mxGeometry y="56" width="160" height="30" as="geometry" />
        </mxCell>
        <mxCell id="-fZvA1d1fAGdgOHOHWPX-61" value="" style="edgeStyle=entityRelationEdgeStyle;fontSize=12;html=1;endArrow=ERmandOne;startArrow=ERmandOne;" edge="1" parent="1" source="-fZvA1d1fAGdgOHOHWPX-52" target="-fZvA1d1fAGdgOHOHWPX-57">
          <mxGeometry width="100" height="100" relative="1" as="geometry">
            <mxPoint x="458.7999999999999" y="299.0899999999997" as="sourcePoint" />
            <mxPoint x="461.2" y="326" as="targetPoint" />
          </mxGeometry>
        </mxCell>
      </root>
    </mxGraphModel>
  </diagram>
</mxfile>
